<?xml version="1.0" encoding="utf-8"?>
<!-- Generator: Adobe Illustrator 24.0.2, SVG Export Plug-In . SVG Version: 6.00 Build 0)  -->
<svg version="1.1" id="Layer_1" xmlns="http://www.w3.org/2000/svg" xmlns:xlink="http://www.w3.org/1999/xlink" x="0px" y="0px"
	 viewBox="0 0 200 200" enable-background="new 0 0 200 200" xml:space="preserve">
<g>
	<path fill="#7768E5" d="M175.2,81c-0.1,0-0.2,0-0.3,0c1.8-4.1,2.8-8.7,2.8-13.5c0-18.8-15.3-34.1-34.1-34.1
		c-6.7,0-12.8,1.9-18.1,5.2c-7.1-17.3-24.1-29.4-43.9-29.4c-26.2,0-47.5,21.2-47.5,47.5c0,2,0.2,3.9,0.4,5.8c-0.1,0-0.3,0-0.4,0
		c-17.6,0-31.8,14.2-31.8,31.8s14.2,31.8,31.8,31.8h141c12.5,0,22.6-10.1,22.6-22.6C197.7,91.1,187.6,81,175.2,81z"/>
	<path fill="#B9D7FF" d="M64.8,181.7c-3.8,8-13.4,11.3-21.4,7.5c-8-3.8-11.3-13.4-7.5-21.4c3.8-8,28.6-22.6,28.6-22.6
		S68.7,173.7,64.8,181.7z"/>
	<path fill="#B9D7FF" d="M104.7,181.7c-3.8,8-13.4,11.3-21.4,7.5c-8-3.8-11.3-13.4-7.5-21.4c3.8-8,28.6-22.6,28.6-22.6
		S108.5,173.7,104.7,181.7z"/>
	<path fill="#B9D7FF" d="M145.1,181.7c-3.8,8-13.4,11.3-21.4,7.5c-8-3.8-11.3-13.4-7.5-21.4c3.8-8,28.6-22.6,28.6-22.6
		S148.9,173.7,145.1,181.7z"/>
</g>
</svg>
