<?xml version="1.0" encoding="utf-8"?>
<!-- Generator: Adobe Illustrator 24.0.2, SVG Export Plug-In . SVG Version: 6.00 Build 0)  -->
<svg version="1.1" id="Layer_1" xmlns="http://www.w3.org/2000/svg" xmlns:xlink="http://www.w3.org/1999/xlink" x="0px" y="0px"
	 viewBox="0 0 200 200" enable-background="new 0 0 200 200" xml:space="preserve">
<g>
	<g>
		
			<ellipse transform="matrix(0.1615 -0.9869 0.9869 0.1615 -35.3341 139.1924)" fill="#F8AC05" cx="64.2" cy="90.4" rx="25" ry="25"/>
		<g>
			<path fill="#F8AC05" d="M64.2,55.8L64.2,55.8c-1.7,0-3-1.3-3-3V31.5c0-1.7,1.3-3,3-3l0,0c1.7,0,3,1.3,3,3v21.4
				C67.2,54.5,65.9,55.8,64.2,55.8z"/>
			<path fill="#F8AC05" d="M64.2,152.3L64.2,152.3c-1.7,0-3-1.3-3-3V128c0-1.7,1.3-3,3-3l0,0c1.7,0,3,1.3,3,3v21.4
				C67.2,151,65.9,152.3,64.2,152.3z"/>
		</g>
		<g>
			<path fill="#F8AC05" d="M88.7,66L88.7,66c-1.2-1.2-1.2-3.1,0-4.2l15.1-15.1c1.2-1.2,3.1-1.2,4.2,0l0,0c1.2,1.2,1.2,3.1,0,4.2
				L92.9,66C91.8,67.1,89.9,67.1,88.7,66z"/>
			<path fill="#F8AC05" d="M20.5,134.2L20.5,134.2c-1.2-1.2-1.2-3.1,0-4.2l15.1-15.1c1.2-1.2,3.1-1.2,4.2,0l0,0
				c1.2,1.2,1.2,3.1,0,4.2l-15.1,15.1C23.5,135.3,21.6,135.3,20.5,134.2z"/>
		</g>
		<g>
			<path fill="#F8AC05" d="M98.8,90.4L98.8,90.4c0-1.7,1.3-3,3-3h21.4c1.7,0,3,1.3,3,3l0,0c0,1.7-1.3,3-3,3h-21.4
				C100.1,93.4,98.8,92,98.8,90.4z"/>
			<path fill="#F8AC05" d="M2.3,90.4L2.3,90.4c0-1.7,1.3-3,3-3h21.4c1.7,0,3,1.3,3,3l0,0c0,1.7-1.3,3-3,3H5.3
				C3.7,93.4,2.3,92,2.3,90.4z"/>
		</g>
		<g>
			<path fill="#F8AC05" d="M88.7,114.8L88.7,114.8c1.2-1.2,3.1-1.2,4.2,0l15.1,15.1c1.2,1.2,1.2,3.1,0,4.2l0,0
				c-1.2,1.2-3.1,1.2-4.2,0l-15.1-15.1C87.5,117.9,87.5,116,88.7,114.8z"/>
			<path fill="#F8AC05" d="M20.5,46.6L20.5,46.6c1.2-1.2,3.1-1.2,4.2,0l15.1,15.1c1.2,1.2,1.2,3.1,0,4.2l0,0c-1.2,1.2-3.1,1.2-4.2,0
				L20.5,50.8C19.3,49.7,19.3,47.8,20.5,46.6z"/>
		</g>
	</g>
	<path fill="#7768E5" d="M179,134.2c-0.1,0-0.2,0-0.2,0c1.5-3.4,2.3-7.2,2.3-11.2c0-15.6-12.6-28.2-28.2-28.2
		c-5.5,0-10.6,1.6-15,4.3c-5.9-14.3-19.9-24.4-36.3-24.4c-21.7,0-39.3,17.6-39.3,39.3c0,1.6,0.1,3.2,0.3,4.8c-0.1,0-0.2,0-0.3,0
		c-14.6,0-26.3,11.8-26.3,26.3c0,14.6,11.8,26.3,26.3,26.3H179c10.3,0,18.7-8.4,18.7-18.7C197.7,142.5,189.3,134.2,179,134.2z"/>
</g>
</svg>
