<?xml version="1.0" encoding="utf-8"?>
<!-- Generator: Adobe Illustrator 24.0.2, SVG Export Plug-In . SVG Version: 6.00 Build 0)  -->
<svg version="1.1" id="Layer_1" xmlns="http://www.w3.org/2000/svg" xmlns:xlink="http://www.w3.org/1999/xlink" x="0px" y="0px"
	 viewBox="0 0 200 200" enable-background="new 0 0 200 200" xml:space="preserve">
<g>
	
		<ellipse transform="matrix(0.8941 -0.4479 0.4479 0.8941 -34.2001 55.387)" fill="#F8AC05" cx="100" cy="100" rx="39.7" ry="39.7"/>
	<g>
		<path fill="#F8AC05" d="M100,45.3L100,45.3c-2.6,0-4.8-2.1-4.8-4.8V6.7c0-2.6,2.1-4.8,4.8-4.8l0,0c2.6,0,4.8,2.1,4.8,4.8v33.8
			C104.8,43.1,102.6,45.3,100,45.3z"/>
		<path fill="#F8AC05" d="M100,198.1L100,198.1c-2.6,0-4.8-2.1-4.8-4.8v-33.8c0-2.6,2.1-4.8,4.8-4.8l0,0c2.6,0,4.8,2.1,4.8,4.8v33.8
			C104.8,195.9,102.6,198.1,100,198.1z"/>
	</g>
	<g>
		<path fill="#F8AC05" d="M138.7,61.3L138.7,61.3c-1.9-1.9-1.9-4.9,0-6.7l23.9-23.9c1.9-1.9,4.9-1.9,6.7,0l0,0
			c1.9,1.9,1.9,4.9,0,6.7l-23.9,23.9C143.6,63.2,140.6,63.2,138.7,61.3z"/>
		<path fill="#F8AC05" d="M30.7,169.3L30.7,169.3c-1.9-1.9-1.9-4.9,0-6.7l23.9-23.9c1.9-1.9,4.9-1.9,6.7,0l0,0
			c1.9,1.9,1.9,4.9,0,6.7l-23.9,23.9C35.5,171.2,32.5,171.2,30.7,169.3z"/>
	</g>
	<g>
		<path fill="#F8AC05" d="M154.7,100L154.7,100c0-2.6,2.1-4.8,4.8-4.8h33.8c2.6,0,4.8,2.1,4.8,4.8l0,0c0,2.6-2.1,4.8-4.8,4.8h-33.8
			C156.9,104.8,154.7,102.6,154.7,100z"/>
		<path fill="#F8AC05" d="M1.9,100L1.9,100c0-2.6,2.1-4.8,4.8-4.8h33.8c2.6,0,4.8,2.1,4.8,4.8l0,0c0,2.6-2.1,4.8-4.8,4.8H6.7
			C4.1,104.8,1.9,102.6,1.9,100z"/>
	</g>
	<g>
		<path fill="#F8AC05" d="M138.7,138.7L138.7,138.7c1.9-1.9,4.9-1.9,6.7,0l23.9,23.9c1.9,1.9,1.9,4.9,0,6.7l0,0
			c-1.9,1.9-4.9,1.9-6.7,0l-23.9-23.9C136.8,143.6,136.8,140.6,138.7,138.7z"/>
		<path fill="#F8AC05" d="M30.7,30.7L30.7,30.7c1.9-1.9,4.9-1.9,6.7,0l23.9,23.9c1.9,1.9,1.9,4.9,0,6.7l0,0c-1.9,1.9-4.9,1.9-6.7,0
			L30.7,37.4C28.8,35.5,28.8,32.5,30.7,30.7z"/>
	</g>
</g>
</svg>
