<?xml version="1.0" encoding="utf-8"?>
<!-- Generator: Adobe Illustrator 24.0.2, SVG Export Plug-In . SVG Version: 6.00 Build 0)  -->
<svg version="1.1" id="Layer_1" xmlns="http://www.w3.org/2000/svg" xmlns:xlink="http://www.w3.org/1999/xlink" x="0px" y="0px"
	 viewBox="0 0 200 200" enable-background="new 0 0 200 200" xml:space="preserve">
<g>
	<g>
		
			<ellipse transform="matrix(0.1615 -0.9869 0.9869 0.1615 -35.3777 139.1003)" fill="#F8AC05" cx="64.2" cy="90.4" rx="25.1" ry="25.1"/>
		<g>
			<path fill="#F8AC05" d="M64.2,55.7L64.2,55.7c-1.7,0-3-1.3-3-3V31.3c0-1.7,1.3-3,3-3l0,0c1.7,0,3,1.3,3,3v21.4
				C67.2,54.4,65.8,55.7,64.2,55.7z"/>
			<path fill="#F8AC05" d="M64.2,152.4L64.2,152.4c-1.7,0-3-1.3-3-3V128c0-1.7,1.3-3,3-3l0,0c1.7,0,3,1.3,3,3v21.4
				C67.2,151.1,65.8,152.4,64.2,152.4z"/>
		</g>
		<g>
			<path fill="#F8AC05" d="M88.7,65.9L88.7,65.9c-1.2-1.2-1.2-3.1,0-4.3l15.1-15.1c1.2-1.2,3.1-1.2,4.3,0l0,0c1.2,1.2,1.2,3.1,0,4.3
				L92.9,65.9C91.7,67.1,89.8,67.1,88.7,65.9z"/>
			<path fill="#F8AC05" d="M20.3,134.2L20.3,134.2c-1.2-1.2-1.2-3.1,0-4.3l15.1-15.1c1.2-1.2,3.1-1.2,4.3,0l0,0
				c1.2,1.2,1.2,3.1,0,4.3l-15.1,15.1C23.4,135.4,21.5,135.4,20.3,134.2z"/>
		</g>
		<g>
			<path fill="#F8AC05" d="M98.8,90.4L98.8,90.4c0-1.7,1.3-3,3-3h21.4c1.7,0,3,1.3,3,3l0,0c0,1.7-1.3,3-3,3h-21.4
				C100.1,93.4,98.8,92,98.8,90.4z"/>
			<path fill="#F8AC05" d="M2.1,90.4L2.1,90.4c0-1.7,1.3-3,3-3h21.4c1.7,0,3,1.3,3,3l0,0c0,1.7-1.3,3-3,3H5.1
				C3.5,93.4,2.1,92,2.1,90.4z"/>
		</g>
		<g>
			<path fill="#F8AC05" d="M88.7,114.9L88.7,114.9c1.2-1.2,3.1-1.2,4.3,0L108,130c1.2,1.2,1.2,3.1,0,4.3l0,0c-1.2,1.2-3.1,1.2-4.3,0
				l-15.1-15.1C87.5,117.9,87.5,116,88.7,114.9z"/>
			<path fill="#F8AC05" d="M20.3,46.5L20.3,46.5c1.2-1.2,3.1-1.2,4.3,0l15.1,15.1c1.2,1.2,1.2,3.1,0,4.3l0,0c-1.2,1.2-3.1,1.2-4.3,0
				L20.3,50.7C19.1,49.6,19.1,47.7,20.3,46.5z"/>
		</g>
	</g>
	<path fill="#FFFFFF" d="M179.2,134.2c-0.1,0-0.2,0-0.2,0c1.5-3.4,2.3-7.2,2.3-11.2c0-15.6-12.7-28.3-28.3-28.3
		c-5.5,0-10.7,1.6-15,4.3c-5.9-14.3-20-24.4-36.4-24.4c-21.7,0-39.4,17.6-39.4,39.4c0,1.6,0.1,3.3,0.3,4.8c-0.1,0-0.2,0-0.3,0
		c-14.6,0-26.4,11.8-26.4,26.4c0,14.6,11.8,26.4,26.4,26.4h117c10.3,0,18.7-8.4,18.7-18.7C197.9,142.6,189.5,134.2,179.2,134.2z"/>
</g>
</svg>
