<?xml version="1.0" encoding="utf-8"?>
<!-- Generator: Adobe Illustrator 24.0.2, SVG Export Plug-In . SVG Version: 6.00 Build 0)  -->
<svg version="1.1" id="Layer_1" xmlns="http://www.w3.org/2000/svg" xmlns:xlink="http://www.w3.org/1999/xlink" x="0px" y="0px"
	 viewBox="0 0 200 200" enable-background="new 0 0 200 200" xml:space="preserve">
<g>
	<path fill="#F8AC05" d="M153.4,89.4c5.3,0,10.3-1.4,14.7-3.7c-7.2,7.8-17.6,12.7-29.1,12.7c-21.9,0-39.7-17.8-39.7-39.7
		c0-21.9,17.8-39.7,39.7-39.7c11.5,0,21.8,4.9,29.1,12.7c-4.4-2.4-9.4-3.7-14.7-3.7c-17,0-30.8,13.8-30.8,30.8
		C122.7,75.6,136.4,89.4,153.4,89.4z"/>
	<path fill="#7768E5" d="M173.3,137.1c-0.1,0-0.2,0-0.3,0c1.7-4,2.7-8.5,2.7-13.2c0-18.4-14.9-33.3-33.3-33.3
		c-6.5,0-12.5,1.9-17.7,5.1c-6.9-16.8-23.5-28.7-42.8-28.7c-25.6,0-46.3,20.7-46.3,46.3c0,1.9,0.2,3.8,0.4,5.7c-0.1,0-0.3,0-0.4,0
		c-17.1,0-31,13.9-31,31s13.9,31,31,31h137.6c12.2,0,22-9.9,22-22C195.3,146.9,185.4,137.1,173.3,137.1z"/>
</g>
</svg>
