<?xml version="1.0" encoding="utf-8"?>
<!-- Generator: Adobe Illustrator 24.0.2, SVG Export Plug-In . SVG Version: 6.00 Build 0)  -->
<svg version="1.1" id="Layer_1" xmlns="http://www.w3.org/2000/svg" xmlns:xlink="http://www.w3.org/1999/xlink" x="0px" y="0px"
	 viewBox="0 0 200 200" enable-background="new 0 0 200 200" xml:space="preserve">
<g>
	<g>
		<path fill="#7768E5" d="M91.8,150.9l-0.9-0.9c-12.5-11.8-26.6-24.2-30.7-26.7c-0.3,0.4-0.8,0.8-1.4,1.1c-3.3,1.6-9.8,0.5-13-1.4
			c-3-1.7-3.3-1.7-8.3,1.9c-4.1,3-8.7-0.2-11.5-2.1c-0.5-0.3-1.1-0.8-1.5-1c-1,1.3-2.5,3.9-3.3,5.4l-1.1,2l-10-11
			c-1.2,5.9,3.3,9.2,3.5,9.3l1.5,1l-1.2,1.3c-0.1,0.2-3.4,3.7-9.3,0.3c-1.2-0.7-2.1-1.9-2.4-3.4C1.1,121,8,111.5,8,111.4
			c1.1-1.4,0-4.9-0.7-6.3l-1.6-3.2l3.4,0.9c0,0,1.7,0.5,4.3,0.5c0,0,0,0,0.1,0c0-0.3-0.1-0.8-0.1-1.1c-0.1-1-0.3-2.3-0.2-3.8
			c0.2-3.6,3.4-5.2,6.2-6.7c0.9-0.5,1.9-1,2.8-1.6c-1.1-0.6-2.3-1.6-3-3.6L19,85.9c-0.9-2.8-1.4-4.7-0.5-6.3
			c0.8-1.4,2.4-1.9,3.5-2.1c1.4-0.3,2.5-3.7,3.2-5.9c0.7-2.1,1.2-3.7,2.1-4.7c1.4-1.4,3.8-1.8,5.7-0.8c2,1,2.9,3,2.6,5.6
			c-0.1,1,0,1.8,0.6,2.4c0.7,0.8,2.5,1.8,7,1.8c1.7,0,3.3,0.2,4.2,1.3c0.8,1.1,0.5,2.4,0.1,3.6c-0.3,1-0.6,2.1-0.3,3.2
			c0,0.1,0,0.1,0.1,0.2c0.6-0.6,1.3-2,1.1-2.6C47.2,77.5,54,71.4,54,71.3c1.1-1,1.5-3.7,1.6-4.8l0-1.4l1.4-0.2
			c2-0.3,2.9-0.4,3.4-0.4c1.9-1,14.4-8.6,18.4-12.9c3.7-4,12-2.5,16.7-0.5c2.2,1,5.9,3,5.8,5.9c0.1,5.9,4.2,8.3,9,11.1
			c3,1.8,6.2,3.7,8.5,6.6c1.9,2.4,2.8,2.4,2.8,2.4c0.4-0.1,1.1-1.9,1.2-3.9c0-0.8,0.4-1.4,1.1-1.8c0.6-0.3,1.7-0.5,3.4,0.6
			c2,1.3,5.3,4.9,5,9.9c-0.1,2.2-0.1,2.2,2.2,2.8c2.1,0.5,5.3,1.2,9.6,4c2.1,1.3,3.1,1.8,3.6,2c0.1-0.1,0.1-0.3,0.2-0.4
			c0.7-1.6,1.9-4.7,7.2-6.8c3.5-1.4,6.3-1.3,8.4,0.2c3.6,2.6,3.4,8.3,3.4,8.5l0,0.5l-24.9,30.4l-0.4,0.2
			c-19.2,8.1-29.6,5.1-32.6,3.7c-1.2,0.9-3.7,3-5.6,6.6c-2.1,4-2.5,5.4-2.6,5.7l0.1,1.5l-10,0.5l7.4,5.2L91.8,150.9z M89.4,144.2
			c1.2,1.1,2.1,1.9,2.7,2.5l0.4-0.3L89.4,144.2z M59.6,119.7c1.3,0,4.4,1.7,18,13.9c1.8,1.6,3.7,3.3,5.4,4.8l14.7-0.7
			c0.4-1.3,1.3-3.2,2.6-5.6c3.1-5.7,7.4-8.2,7.5-8.3l0.8-0.5l0.8,0.5c0.1,0,9.5,5.4,30.3-3.3l23.7-28.9c0-1.4-0.4-4.2-2-5.3
			c-1.2-0.8-3-0.8-5.4,0.2c-4,1.6-4.8,3.6-5.4,5c-0.4,0.9-0.8,2-2,2.4c-1.5,0.5-3.2-0.4-6.4-2.4c-3.9-2.5-6.6-3.1-8.6-3.6
			c-3.1-0.7-4.9-1.5-4.6-6.1c0.2-3.2-1.8-5.8-3.2-6.8c-0.3,1.8-1.1,4.5-3.2,5.2c-2.8,0.9-5.4-2.4-6.3-3.5c-1.9-2.4-4.8-4.1-7.6-5.8
			c-5.1-3-10.4-6.2-10.6-13.9l0-0.1l0-0.1c0-0.3-1.1-1.7-4.4-3.1c-4.5-1.8-10.4-2.3-12.5-0.1C77.2,58,62.3,67.7,60.8,67.7
			c-0.1,0-1.1,0.1-2.1,0.3c-0.2,1.6-0.8,4.3-2.5,5.8c-2.6,2.2-5,5.9-4.7,7c0.7,2.4-1.3,6.1-3.6,6.7c-1.3,0.4-3-0.1-3.7-2.6
			c-0.6-2-0.1-3.8,0.3-5c0.1-0.2,0.1-0.5,0.2-0.7c-0.3-0.1-0.7-0.1-1.5-0.1c-4.6,0-7.7-1-9.5-2.9c-1.1-1.3-1.6-3-1.3-5
			c0.1-0.8,0-1.8-0.8-2.3c-0.6-0.3-1.6-0.2-2,0.2c-0.4,0.4-0.9,2.1-1.3,3.4c-1,3.3-2.3,7.4-5.5,8.1c-1.2,0.3-1.4,0.6-1.4,0.6
			C21,81.7,21.5,83.4,22,85l0.2,0.6c0.4,1.4,1.4,1.8,2.3,2.1c0.7,0.2,1.7,0.6,1.9,1.8c0.2,1.3-0.9,2.2-1.7,2.8
			c-1.2,0.9-2.6,1.6-3.9,2.3c-2.7,1.4-4.3,2.3-4.4,4c-0.1,1.2,0.1,2.2,0.2,3.2c0.2,1.4,0.3,2.8-0.6,3.8c-0.9,1-2.1,1-2.6,1
			c-0.8,0-1.6,0-2.3-0.1c0.6,2.1,0.9,4.9-0.6,7c-0.1,0.1-0.2,0.2-0.3,0.4l9.1,10c1-1.6,2.3-3.8,3.2-4.7c1.4-1.4,3.2-0.2,5.2,1.2
			c3,2.1,5.6,3.7,7.8,2.1c5-3.6,6.9-5,11.8-2.1c3.5,2,9.7,2,10.3,1c0.1-0.7,0.5-1.2,1.2-1.4C59.1,119.7,59.3,119.7,59.6,119.7z
			 M6.7,120.3c-0.9,2.2-1.6,4.4-1.3,5.9c0.1,0.6,0.4,1,0.8,1.3c1.6,0.9,2.8,1.1,3.7,1C8.2,126.6,6.7,123.8,6.7,120.3z M23.5,89.1
			L23.5,89.1L23.5,89.1z"/>
	</g>
	<g>
		<path fill="#7768E5" d="M149.1,82.6c-1.8,0-4.6-1.3-8.4-3.8c-7.9-3.4-8.1-4.9-8-5.7c0-1.1,0-4.4,2-5.5c0.7-0.4,1.9-0.7,3.5,0.4
			l0.8,0.5c1.8,1.2,6.8,4.5,9,5.4c0.2-0.2,0.3-0.4,0.5-0.5c1-0.7,2.2-0.3,3.2,0.1c0.4,0.2,1.4,0.5,1.7,0.4c1.3-1.5,3.5-2.9,5.5-2.5
			c0.8,0.2,2.3,0.8,2.9,3.1c0.4,1.5,0.7,3.3-0.3,4.7c-1.2,1.5-3.5,1.8-6.6,1.8c-1.6,0-2.7-0.1-3.5-0.2c-0.1,0.8-0.6,1.4-1.3,1.6
			C149.8,82.5,149.5,82.6,149.1,82.6z M135.8,72.6c0.8,0.7,3.8,2.3,6.2,3.3l0.3,0.1c2.3,1.5,4.8,2.9,6.1,3.3
			c0.4-1.9,1.7-1.9,2.9-1.8c0.7,0.1,1.7,0.2,3.5,0.2c3.4,0,4-0.5,4-0.6c0,0,0.2-0.3-0.2-1.9c0-0.2-0.2-0.7-0.5-0.8
			c-0.5-0.1-1.7,0.5-2.5,1.5c-1.5,1.8-3.7,1-5.1,0.5c0,0-0.1,0-0.1,0c-0.2,0.3-0.4,0.5-0.7,0.6c-1.5,0.8-3.6,0.1-12.6-5.9l-0.8-0.5
			c-0.1-0.1-0.2-0.1-0.2-0.1C136,70.9,135.9,71.8,135.8,72.6z M135.9,73.1L135.9,73.1C135.9,73.1,135.9,73.1,135.9,73.1z"/>
	</g>
	<g>
		<path fill="#7768E5" d="M182.6,85.2c-1.8,0-3.3-0.3-4.1-0.8c-0.3-0.2-0.8-0.4-1.2-0.6c-1.7-0.7-4.6-1.9-4.3-6.1
			c-1,0.2-2.6,0.6-3.8-0.5c-1.1-1-1.4-2.7-0.9-5.5l0.8-5.2l2.3,4.7c0.4,0.8,1,1.8,1.4,2.3c0.1-0.4,0.2-0.8,0.3-1.2
			c1-3.7,2.3-8.2,9.3-6.3c3.2,0.9,15.5,5.3,16.4,10.6c0.2,0.9,0.1,2.7-2.1,4.3C192.4,83.8,186.7,85.2,182.6,85.2z M175.6,75.1
			c0.8,0.9,0.7,2.1,0.6,2.6c-0.3,2.1,0.5,2.5,2.3,3.2c0.6,0.2,1.1,0.5,1.7,0.8c1.2,0.7,9.1,0.4,14.7-3.4c0.9-0.6,0.8-1,0.8-1.1
			c-0.4-2.3-8.2-6.4-14.1-8c-4-1.1-4.4,0.2-5.4,4.1c-0.1,0.4-0.2,0.9-0.4,1.4C175.7,74.8,175.6,74.9,175.6,75.1z M172.5,74.2
			L172.5,74.2L172.5,74.2z"/>
	</g>
</g>
</svg>
