<?xml version="1.0" encoding="utf-8"?>
<!-- Generator: Adobe Illustrator 24.0.2, SVG Export Plug-In . SVG Version: 6.00 Build 0)  -->
<svg version="1.1" id="Layer_1" xmlns="http://www.w3.org/2000/svg" xmlns:xlink="http://www.w3.org/1999/xlink" x="0px" y="0px"
	 viewBox="0 0 200 200" enable-background="new 0 0 200 200" xml:space="preserve">
<g>
	<path fill="#FFFFFF" d="M100,2.6c-41.5,0-75.2,33.7-75.2,75.2c0,35.4,54.7,99.5,70.8,117.6c2.4,2.6,6.5,2.6,8.8,0
		c16.1-18.1,70.8-82.2,70.8-117.6C175.2,36.3,141.5,2.6,100,2.6z M100,111.4c-20.5,0-37.2-16.7-37.2-37.2C62.8,53.7,79.5,37,100,37
		c20.5,0,37.2,16.7,37.2,37.2C137.2,94.7,120.5,111.4,100,111.4z"/>
</g>
</svg>
